<svg xmlns="http://www.w3.org/2000/svg" viewBox="0 0 843.04 147.14"><defs><style>.cls-1{fill:#f9dea4;}</style></defs><title>Asset 1</title><g id="Layer_2" data-name="Layer 2"><g id="Layer_1-2" data-name="Layer 1"><rect class="cls-1" x="407.82" y="99.61" width="23.98" height="7.77"/><path class="cls-1" d="M371.06,81.29h6.64a33.32,33.32,0,0,0,3.17-6.57H368.09A36.91,36.91,0,0,0,371.06,81.29Z"/><rect class="cls-1" x="363.34" y="61.47" width="22.09" height="6.97"/><rect class="cls-1" x="363.34" y="99.61" width="22.79" height="7.77"/><path class="cls-1" d="M397.82,0c-40.28,0-72.93,32.94-72.93,73.57s32.65,73.57,72.93,73.57,72.93-32.94,72.93-73.57S438.09,0,397.82,0Zm-45,32.28h17.44V26.1H378v6.18h17v7H378v5.08h15.85V51H354.42V44.33h15.85V39.25H352.83Zm41,85.26h-7.73V114H363.34v3.58h-7.73V92.94h38.24ZM397,88.66H351.74V81.29h11.79a40.7,40.7,0,0,1-2.77-6.57h-5.15V55.29h37.55V74.72H388a33.17,33.17,0,0,1-3.07,6.57H397Zm1.09-56.38h17V26.1h8.12v6.18H441.9v7H423.28v5.08h16.65V51H399.3V44.33h15.85V39.25h-17Zm41.41,85.26H431.8V114h-24v3.58h-7.73V92.94h39.43Zm3.57-28.89H398.9V81.29h9.51a31.17,31.17,0,0,1-2.77-6.57h-5.55V55.29h39.43V74.72h-5.74a36.19,36.19,0,0,1-2.88,6.57H443.1Z"/><path class="cls-1" d="M416,81.29h7.53a32.48,32.48,0,0,0,3-6.57H413A36.79,36.79,0,0,0,416,81.29Z"/><rect class="cls-1" x="408.22" y="61.47" width="23.19" height="6.97"/><path class="cls-1" d="M514.47,106.18a2.13,2.13,0,0,0,1.31-.42,1.5,1.5,0,0,0,.56-1.28v-43a1.26,1.26,0,0,0-.56-1.18,2.56,2.56,0,0,0-1.31-.33v-1.7H532v1.7a2,2,0,0,0-1,.28.9.9,0,0,0-.52.84,2.92,2.92,0,0,0,.38,1.23c.25.5.53,1,.84,1.6l13.38,24.54,13.47-24.26q.65-1.22,1-1.93a3.08,3.08,0,0,0,.33-1.27c0-.69-.4-1-1.22-1v-1.7h17.31v1.7a2.56,2.56,0,0,0-1.31.33,1.26,1.26,0,0,0-.56,1.18v43a1.5,1.5,0,0,0,.56,1.28,2.13,2.13,0,0,0,1.31.42v1.7H561.25v-1.7q2.53,0,2.53-1.7V73.15h-.19l-18.8,34.73h-.28L526.07,73.06h-.19v31.43c0,1.13.87,1.7,2.62,1.7v1.7h-14Z"/><path class="cls-1" d="M584.82,106.18a2.73,2.73,0,0,0,1.92-1.22,21.09,21.09,0,0,0,1.36-2.36l17.31-36.71c.43-.82.83-1.57,1.17-2.26a4.17,4.17,0,0,0,.51-1.79,1.4,1.4,0,0,0-.66-1.32,5.55,5.55,0,0,0-1.4-.56v-1.7h15.81v1.7a7.9,7.9,0,0,0-1.31.52,1.39,1.39,0,0,0-.66,1.37,3.77,3.77,0,0,0,.33,1.51q.33.75,1,2l19.46,38.41a3.18,3.18,0,0,0,1.26,1.51,17.87,17.87,0,0,0,1.82.94v1.7H626.27v-1.7a2.21,2.21,0,0,0,.94-.28.91.91,0,0,0,.56-.85,5.92,5.92,0,0,0-.75-2.45l-3.56-7H600.63l-3.37,6.7a7.9,7.9,0,0,0-.94,2.83c0,.69.59,1,1.78,1v1.7H584.82Zm35.27-17.56-7.86-17.55-8.79,17.55Z"/><path class="cls-1" d="M683.43,58.24a38.18,38.18,0,0,1,8.14.8,18.31,18.31,0,0,1,6.27,2.55,11.69,11.69,0,0,1,4,4.53A15.1,15.1,0,0,1,703.26,73q0,6.23-3.65,9.53a19.53,19.53,0,0,1-9.82,4.44l12.44,17.93a2.53,2.53,0,0,0,1.54,1.13,7.79,7.79,0,0,0,1.64.19v1.7H687.92v-1.7a3.47,3.47,0,0,0,1.45-.28c.4-.19.61-.44.61-.76a2.13,2.13,0,0,0-.38-1.08c-.25-.41-.62-1-1.12-1.65L678.19,87.69H664.81v16.8a1.45,1.45,0,0,0,.61,1.28,4.09,4.09,0,0,0,2.2.42v1.7H651.43v-1.7q2.71,0,2.71-1.7V61.64q0-1.7-2.71-1.7v-1.7ZM681,80.33a25.49,25.49,0,0,0,5.62-.52,10,10,0,0,0,3.56-1.46A5.51,5.51,0,0,0,692,76.13a7.2,7.2,0,0,0,0-5.57,5.5,5.5,0,0,0-1.87-2.22,10,10,0,0,0-3.56-1.46,25.49,25.49,0,0,0-5.62-.52H664.81v14Z"/><path class="cls-1" d="M770.16,101.09a2.49,2.49,0,0,1-.52,0,2.48,2.48,0,0,0-.51,0,8.62,8.62,0,0,0-2.67,1.13q-2.1,1.13-5.33,2.55a46.81,46.81,0,0,1-7.34,2.45,35.06,35.06,0,0,1-8.61,1,42,42,0,0,1-11.32-1.51,28,28,0,0,1-9.59-4.68,22.87,22.87,0,0,1-6.59-7.88,23.73,23.73,0,0,1-2.44-11,23.86,23.86,0,0,1,2.44-11,23.23,23.23,0,0,1,6.59-8,28.92,28.92,0,0,1,9.59-4.81,39.77,39.77,0,0,1,11.32-1.6,45.54,45.54,0,0,1,8.65.75q3.88.75,6.78,1.6a37,37,0,0,1,4.59,1.6,8.29,8.29,0,0,0,2.06.75,1,1,0,0,0,.79-.47l.52-.75L770,62.3l-7.3,11.42-.94-.66a3.78,3.78,0,0,0,0-.56c0-.19-.08-.41-.14-.66q-.19-1-1.87-2.13a19.17,19.17,0,0,0-4.16-1.93,42.37,42.37,0,0,0-5.24-1.41,25.38,25.38,0,0,0-5.1-.57,25,25,0,0,0-7.53,1.13,18.64,18.64,0,0,0-6.27,3.3,16.09,16.09,0,0,0-4.26,5.33,17.19,17.19,0,0,0,0,14.44,16.09,16.09,0,0,0,4.26,5.33,18.64,18.64,0,0,0,6.27,3.3,25,25,0,0,0,7.53,1.13,29.49,29.49,0,0,0,6.27-.71,36.88,36.88,0,0,0,6-1.79A19.75,19.75,0,0,0,762,94.82c1.22-.91,1.82-1.78,1.82-2.6a1.79,1.79,0,0,0-.37-1.13l1.31-.75,6.17,10Z"/><path class="cls-1" d="M812.81,57.68a37.23,37.23,0,0,1,10.48,1.56A32.34,32.34,0,0,1,833,63.91a25.27,25.27,0,0,1,7.21,7.88A21.83,21.83,0,0,1,843,83.07a21.82,21.82,0,0,1-2.81,11.27,25.22,25.22,0,0,1-7.21,7.88,29.91,29.91,0,0,1-9.73,4.53,39.39,39.39,0,0,1-21,0,29.89,29.89,0,0,1-9.73-4.53,25.15,25.15,0,0,1-7.2-7.88,21.82,21.82,0,0,1-2.81-11.27,21.83,21.83,0,0,1,2.81-11.28,25.2,25.2,0,0,1,7.2-7.88,32.31,32.31,0,0,1,9.73-4.67A37.22,37.22,0,0,1,812.81,57.68Zm0,8.68a23.34,23.34,0,0,0-7.11,1.13,21.62,21.62,0,0,0-6.4,3.26A16.81,16.81,0,0,0,794.67,76a15,15,0,0,0,0,14.16,16.85,16.85,0,0,0,4.63,5.24,21.62,21.62,0,0,0,6.4,3.26,22.94,22.94,0,0,0,14.22,0,21.7,21.7,0,0,0,6.41-3.26A16.91,16.91,0,0,0,831,90.14,15,15,0,0,0,831,76a16.87,16.87,0,0,0-4.63-5.24,21.7,21.7,0,0,0-6.41-3.26A23.32,23.32,0,0,0,812.81,66.36Z"/><path class="cls-1" d="M58.1,59.94a3,3,0,0,0-2.71,1.37,19.74,19.74,0,0,0-1.22,2.22L37.61,100.24q-.84,1.89-1.4,3a4.45,4.45,0,0,0-.56,1.6,1.15,1.15,0,0,0,.23.75,3.64,3.64,0,0,0,.61.56v1.7H22.17v-1.7a1.34,1.34,0,0,0,.84-1.32,6.15,6.15,0,0,0-.7-1.94L20.58,99.3,3.74,62.4a3.12,3.12,0,0,0-1.31-1.51A12.36,12.36,0,0,0,0,59.94v-1.7H16.75v1.7a2.62,2.62,0,0,0-1.26.33,1.33,1.33,0,0,0-.61,1.28,6.27,6.27,0,0,0,.8,2.64q.79,1.61,1.92,4l12,26L41.26,68.53q1.12-2.46,2.1-4.39a7.5,7.5,0,0,0,1-2.69q0-1.51-2.62-1.51v-1.7H58.1Z"/><path class="cls-1" d="M69.88,106.18q2.43,0,2.43-1.7V61.64q0-1.7-2.43-1.7v-1.7H85.41v1.7q-2.43,0-2.43,1.7v42.84q0,1.7,2.43,1.7v1.7H69.88Z"/><path class="cls-1" d="M155.11,101.09a2.49,2.49,0,0,1-.52,0,2.48,2.48,0,0,0-.51,0,8.6,8.6,0,0,0-2.67,1.13q-2.1,1.13-5.33,2.55a46.93,46.93,0,0,1-7.35,2.45,35,35,0,0,1-8.61,1,42,42,0,0,1-11.32-1.51,28.07,28.07,0,0,1-9.59-4.68,22.9,22.9,0,0,1-6.6-7.88,23.76,23.76,0,0,1-2.43-11,23.89,23.89,0,0,1,2.43-11,23.26,23.26,0,0,1,6.6-8,29,29,0,0,1,9.59-4.81,39.77,39.77,0,0,1,11.32-1.6,45.52,45.52,0,0,1,8.65.75q3.88.75,6.78,1.6a37.07,37.07,0,0,1,4.58,1.6,8.29,8.29,0,0,0,2.06.75,1,1,0,0,0,.8-.47l.52-.75,1.4,1.13-7.3,11.42-.94-.66a3.49,3.49,0,0,0,0-.56c0-.19-.08-.41-.14-.66a3.7,3.7,0,0,0-1.87-2.13,19.22,19.22,0,0,0-4.16-1.93,42.45,42.45,0,0,0-5.24-1.41,25.34,25.34,0,0,0-5.1-.57,25,25,0,0,0-7.53,1.13,18.64,18.64,0,0,0-6.27,3.3,16.15,16.15,0,0,0-4.26,5.33,17.19,17.19,0,0,0,0,14.44,16.15,16.15,0,0,0,4.26,5.33,18.64,18.64,0,0,0,6.27,3.3,25,25,0,0,0,7.53,1.13,29.49,29.49,0,0,0,6.27-.71,37,37,0,0,0,6-1.79,19.78,19.78,0,0,0,4.54-2.45c1.22-.91,1.83-1.78,1.83-2.6a1.78,1.78,0,0,0-.38-1.13l1.31-.75,6.17,10Z"/><path class="cls-1" d="M184.11,104.49a1.5,1.5,0,0,0,.56,1.28,2.13,2.13,0,0,0,1.31.42v1.7h-14.6v-1.7q2.06,0,2.06-1.7V61.64q0-1.7-2.06-1.7v-1.7H186v1.7a2.13,2.13,0,0,0-1.31.42,1.5,1.5,0,0,0-.56,1.28V79.57l19.37-15.39q1.31-1.13,2.06-1.84c.5-.47.75-.86.75-1.18a1,1,0,0,0-.42-.94,1.71,1.71,0,0,0-1-.28v-1.7h19.65v1.7a5.24,5.24,0,0,0-3.37,1.41L199.64,78.63l19.65,22.93a23.61,23.61,0,0,0,2.85,2.78,9.09,9.09,0,0,0,3.23,1.84v1.7H208.06v-1.7c.81,0,1.22-.22,1.22-.66a5.39,5.39,0,0,0-1.31-2.07L192,84.86,184.11,91Z"/><path class="cls-1" d="M249.32,58.24v1.7a5.27,5.27,0,0,0-1.59.24,1.08,1.08,0,0,0-.75,1.18A8,8,0,0,0,248.34,64q1.36,2.12,3.18,4.81t3.79,5.52q2,2.83,3.18,4.81L269.43,64q.75-1.13,1.22-1.79a2.18,2.18,0,0,0,.47-1.22c0-.44-.3-.73-.89-.85a7.79,7.79,0,0,0-1.64-.19v-1.7H285v1.7a6.56,6.56,0,0,0-1.4.14,3.59,3.59,0,0,0-1.36.66,8.48,8.48,0,0,0-1.5,1.51q-.8,1-1.92,2.69L262.89,87.69v16.8q0,1.7,2.15,1.7v1.7H250.26v-1.7a2.27,2.27,0,0,0,1.4-.42,1.5,1.5,0,0,0,.56-1.28V87.69L234.17,62.21a5.12,5.12,0,0,0-2-1.6,5.46,5.46,0,0,0-2.29-.66v-1.7Z"/></g></g></svg>